<svg xmlns="http://www.w3.org/2000/svg" version="1.1" xmlns:xlink="http://www.w3.org/1999/xlink" xmlns:svgjs="http://svgjs.dev/svgjs" width="1500" height="1500" viewBox="0 0 1500 1500"><rect width="1500" height="1500" fill="#bba590"></rect><g transform="matrix(0.6666666666666666,0,0,0.6666666666666666,249.54443934979076,429.636559139785)"><svg viewBox="0 0 388 248" data-background-color="#bba590" preserveAspectRatio="xMidYMid meet" height="958" width="1500" xmlns="http://www.w3.org/2000/svg" xmlns:xlink="http://www.w3.org/1999/xlink"><g id="tight-bounds" transform="matrix(1,0,0,1,0.1767575322811865,0.4000000000000057)"><svg viewBox="0 0 387.6464849354376 247.2" height="247.2" width="387.6464849354376"><g><svg viewBox="0 0 387.6464849354376 247.2" height="247.2" width="387.6464849354376"><g><svg viewBox="0 0 387.6464849354376 247.2" height="247.2" width="387.6464849354376"><g><svg viewBox="0 0 387.6464849354376 247.2" height="247.2" width="387.6464849354376"><g id="textblocktransform"><svg viewBox="0 0 387.6464849354376 247.2" height="247.2" width="387.6464849354376" id="textblock"><g><svg viewBox="0 0 387.6464849354376 247.2" height="247.2" width="387.6464849354376"><g transform="matrix(1,0,0,1,0,0)"><svg width="387.6464849354376" viewBox="-0.75 -34.85 54.65 34.85" height="247.2" data-palette-color="#273d24"><path d="M16.65 0L10.25 0 10.25-14.08-0.75-34.85 6.3-34.85 13.63-19.7 20.65-34.85 27.65-34.85 16.65-13.63 16.65 0ZM40.55 0L31.1 0 31.1-34.85 40.4-34.85Q46.55-34.85 49.35-32.41 52.15-29.98 52.15-25.55L52.15-25.55Q52.15-23.58 51.2-21.53 50.25-19.48 48.07-18.45L48.07-18.45Q51.05-17.73 52.47-15.55 53.9-13.38 53.9-10.05L53.9-10.05Q53.9-5.45 50.75-2.73 47.6 0 40.55 0L40.55 0ZM40.4-29.9L40.4-29.9 37.4-29.9 37.4-20.25 41.45-20.25Q43.15-20.25 44.14-21.06 45.12-21.88 45.53-23.06 45.95-24.25 45.95-25.35L45.95-25.35Q45.95-27.15 45.16-28.14 44.37-29.13 43.1-29.51 41.82-29.9 40.4-29.9ZM40.95-15.6L40.95-15.6 37.4-15.6 37.4-5.05 41.25-5.05Q42.75-5.05 44.14-5.45 45.52-5.85 46.41-7 47.3-8.15 47.3-10.4L47.3-10.4Q47.3-12.68 46.36-13.79 45.42-14.9 43.96-15.25 42.5-15.6 40.95-15.6Z" opacity="1" transform="matrix(1,0,0,1,0,0)" fill="#273d24" class="wordmark-text-0" data-fill-palette-color="primary" id="text-0"></path></svg></g></svg></g></svg></g></svg></g></svg></g></svg></g><defs></defs></svg><rect width="387.6464849354376" height="247.2" fill="none" stroke="none" visibility="hidden"></rect></g></svg></g></svg>